<svg xmlns="http://www.w3.org/2000/svg" viewBox="0 0 169.53 93.59"><title>Asset 1</title><g id="Layer_2" data-name="Layer 2"><g id="Layer_2-2" data-name="Layer 2"><polygon points="68.5 49.58 68.58 49.43 68.61 49.3 68.61 45.75 68.57 45.6 68.51 45.49 68.38 45.43 68.25 45.4 64.7 45.4 64.55 45.43 64.43 45.5 62.91 47.01 62.84 47.16 62.81 47.3 62.85 47.45 63.99 49.83 64.06 49.93 64.16 50 64.16 50.01 64.17 50.01 66.56 51.16 66.71 51.19 66.87 51.16 66.99 51.09 68.5 49.58"/><polygon points="58.89 32.12 59.03 32.08 59.16 32.02 61.66 29.51 61.73 29.37 61.76 29.25 61.73 29.11 61.66 28.99 59.16 26.48 59.01 26.41 58.87 26.38 58.86 26.36 56.77 26.36 56.76 26.38 56.6 26.42 56.49 26.49 56.4 26.64 56.38 26.65 55.52 29.12 55.52 29.12 55.51 29.25 55.52 29.37 56.38 31.86 56.4 31.86 56.49 32.01 56.6 32.08 56.75 32.12 58.89 32.12"/><polygon points="63.83 43.56 63.98 43.52 64.11 43.46 64.25 43.32 64.32 43.17 64.34 43.06 64.31 42.92 64.25 42.79 62.32 40.89 62.32 40.87 62.3 40.86 62.22 40.7 62.17 40.47 62.21 40.31 62.3 40.13 62.32 40.12 62.32 40.1 64.79 37.65 61.16 37.65 61.13 37.62 61.13 37.62 60.97 37.58 60.79 37.49 60.75 37.45 60.66 37.29 60.62 37.11 60.63 37.09 60.61 37.08 60.61 34.44 60.02 34.44 60.01 34.45 59.85 34.49 59.72 34.56 57.77 36.52 57.7 36.66 57.66 36.79 57.66 40.66 57.7 40.81 57.77 40.94 60.29 43.46 60.44 43.53 60.56 43.56 63.83 43.56"/><polygon points="78.38 29.25 75.49 26.36 73.23 26.36 76.02 29.18 76.03 29.18 76.03 29.32 73.23 32.12 75.49 32.12 78.38 29.25"/><polygon points="62.81 11.18 62.85 11.34 62.91 11.47 64.43 12.98 64.57 13.05 64.71 13.09 64.72 13.1 68.23 13.1 68.24 13.09 68.4 13.04 68.51 12.99 68.58 12.86 68.61 12.73 68.61 9.2 68.57 9.05 68.5 8.92 66.99 7.41 66.85 7.34 66.71 7.31 66.55 7.34 66.53 7.33 64.17 8.49 64.14 8.49 64.06 8.55 63.99 8.65 62.85 11.04 62.81 11.18"/><polygon points="57.77 17.56 57.7 17.71 57.66 17.84 57.66 21.71 57.7 21.86 57.77 21.98 59.72 23.94 59.87 24.01 60 24.04 60.61 24.04 60.61 21.4 60.63 21.39 60.62 21.37 60.66 21.21 60.75 21.03 60.79 20.98 60.95 20.9 61.13 20.86 61.15 20.86 61.16 20.85 64.79 20.85 62.32 18.38 62.32 18.36 62.3 18.35 62.22 18.19 62.17 17.96 62.21 17.8 62.3 17.62 62.32 17.61 62.32 17.59 64.25 15.69 64.32 15.54 64.34 15.42 64.31 15.29 64.25 15.16 64.11 15.04 63.96 14.97 63.82 14.93 63.81 14.92 60.59 14.92 60.58 14.93 60.41 14.97 60.29 15.04 57.77 17.56"/><polygon points="80.23 20.65 78.64 19.05 78.64 23.03 78.54 23.13 74.58 23.13 76.18 24.73 80.23 24.73 80.23 20.65"/><polygon points="87.64 43.88 87.63 43.87 87.58 43.71 87.52 43.58 85.02 41.08 84.87 41.01 84.76 40.98 84.62 41.01 84.49 41.08 82.01 43.58 81.94 43.73 81.91 43.87 81.89 43.88 81.89 47.46 81.91 47.47 81.94 47.63 82 47.75 82.14 47.81 82.28 47.84 82.29 47.86 83.42 47.86 83.43 47.87 83.45 47.87 83.61 47.91 83.79 47.99 83.8 48.01 83.82 48.01 84.75 48.97 85.69 48.01 85.71 48.01 85.72 47.99 85.88 47.91 86.06 47.87 86.08 47.87 86.09 47.86 87.24 47.86 87.25 47.84 87.42 47.8 87.53 47.75 87.59 47.62 87.63 47.47 87.64 47.46 87.64 43.88"/><polygon points="79.44 54.28 79.52 54.13 79.55 53.99 79.57 53.98 79.57 53.39 76.92 53.39 76.9 53.39 76.74 53.35 76.56 53.26 76.51 53.22 76.43 53.05 76.38 52.87 76.38 52.87 76.36 52.85 76.36 49.21 73.91 51.67 73.88 51.68 73.88 51.69 73.72 51.77 73.49 51.81 73.33 51.77 73.14 51.69 73.14 51.68 73.12 51.67 71.21 49.76 71.06 49.69 70.95 49.66 70.81 49.69 70.69 49.76 70.55 49.9 70.47 50.05 70.44 50.17 70.44 53.44 70.48 53.59 70.55 53.72 73.06 56.22 73.21 56.29 73.35 56.32 73.36 56.34 77.19 56.34 77.2 56.32 77.36 56.28 77.49 56.22 79.44 54.28"/><polygon points="69.82 40.11 69.75 40.26 69.72 40.37 69.75 40.51 69.82 40.63 70.66 41.47 70.66 41.49 70.67 41.5 70.75 41.66 70.8 41.84 70.8 41.84 70.83 41.87 70.83 43.18 72.14 43.18 72.16 43.2 72.16 43.2 72.33 43.24 72.51 43.33 72.51 43.35 72.53 43.35 73.37 44.19 73.52 44.26 73.63 44.29 73.77 44.25 73.9 44.19 76.46 41.61 76.53 41.46 76.56 41.32 76.58 41.31 76.58 37.83 76.56 37.81 76.52 37.65 76.47 37.54 76.33 37.47 76.19 37.44 76.18 37.42 72.7 37.42 72.69 37.44 72.53 37.48 72.4 37.55 69.82 40.11"/><polygon points="76.18 33.77 74.58 35.37 78.54 35.37 78.64 35.47 78.64 39.42 80.23 37.83 80.23 33.77 76.18 33.77"/><polygon points="87.64 55.15 87.63 55.13 87.58 54.97 87.52 54.84 85.02 52.34 84.87 52.27 84.76 52.24 84.62 52.28 84.49 52.34 82.01 54.84 81.94 54.99 81.91 55.13 81.89 55.15 81.89 57.23 81.91 57.25 81.94 57.41 82.02 57.52 82.16 57.61 82.17 57.63 84.64 58.48 84.75 58.5 84.88 58.48 84.89 58.48 87.36 57.63 87.37 57.61 87.51 57.52 87.59 57.41 87.63 57.25 87.64 57.23 87.64 55.15"/><polygon points="66.14 27.92 66.12 27.94 66.12 27.94 66.08 28.1 65.99 28.29 65.97 28.3 65.97 28.31 65.03 29.25 65.97 30.19 65.97 30.21 65.99 30.21 66.07 30.38 66.12 30.56 66.12 30.56 66.14 30.58 66.14 31.74 66.16 31.75 66.2 31.91 66.26 32.02 66.39 32.09 66.52 32.12 70.15 32.12 70.3 32.08 70.42 32.02 72.92 29.51 73 29.37 73.03 29.25 72.99 29.11 72.93 28.99 70.42 26.48 70.28 26.41 70.14 26.38 70.13 26.36 66.54 26.36 66.53 26.38 66.37 26.42 66.26 26.48 66.19 26.61 66.16 26.75 66.14 26.76 66.14 27.92"/><polygon points="93.48 29.32 93.48 29.18 96.3 26.36 94.02 26.36 91.15 29.25 94.02 32.12 96.3 32.12 93.49 29.32 93.48 29.32"/><polygon points="103.37 30.58 103.39 30.56 103.39 30.56 103.43 30.4 103.52 30.21 103.54 30.21 103.54 30.19 104.48 29.25 103.54 28.31 103.54 28.3 103.52 28.29 103.44 28.12 103.39 27.94 103.39 27.94 103.37 27.92 103.37 26.74 103.33 26.59 103.27 26.48 103.14 26.41 103 26.38 102.99 26.36 99.38 26.36 99.37 26.38 99.21 26.42 99.09 26.48 96.61 28.98 96.53 29.13 96.5 29.25 96.54 29.39 96.61 29.51 99.08 32.01 99.23 32.09 99.36 32.12 103.01 32.12 103.16 32.08 103.27 32.02 103.34 31.89 103.37 31.76 103.37 30.58"/><polygon points="99.69 18.37 99.77 18.22 99.79 18.11 99.76 17.97 99.69 17.84 98.88 17.03 98.88 17.01 98.86 17 98.78 16.84 98.73 16.66 98.73 16.66 98.7 16.63 98.7 15.3 97.37 15.3 97.35 15.3 97.19 15.26 97 15.17 97 15.16 96.98 15.15 96.16 14.31 96.02 14.24 95.9 14.21 95.76 14.25 95.63 14.31 93.05 16.87 92.98 17.02 92.95 17.15 92.95 20.7 92.99 20.85 93.04 20.96 93.18 21.03 93.3 21.05 96.86 21.05 97 21.02 97.13 20.95 99.69 18.37"/><polygon points="108.92 14.92 105.7 14.92 105.69 14.93 105.53 14.97 105.41 15.04 105.29 15.16 105.21 15.31 105.19 15.42 105.22 15.56 105.28 15.69 107.19 17.59 107.19 17.61 107.21 17.62 107.29 17.78 107.34 18.01 107.3 18.17 107.21 18.35 107.19 18.36 107.19 18.38 104.74 20.85 108.35 20.85 108.36 20.86 108.38 20.86 108.54 20.9 108.72 20.98 108.77 21.03 108.85 21.19 108.89 21.37 108.89 21.37 108.92 21.4 108.92 24.04 109.51 24.04 109.66 24 109.79 23.94 111.74 21.98 111.82 21.84 111.85 21.7 111.87 21.69 111.87 17.86 111.85 17.85 111.81 17.69 111.74 17.56 109.22 15.04 109.08 14.97 108.93 14.93 108.92 14.92"/><polygon points="101.03 8.92 100.95 9.07 100.92 9.21 100.9 9.22 100.9 12.7 100.92 12.71 100.96 12.88 101.02 12.99 101.15 13.05 101.29 13.09 101.3 13.1 104.79 13.1 104.8 13.09 104.96 13.04 105.08 12.98 106.59 11.47 106.67 11.32 106.7 11.18 106.66 11.02 106.67 11.01 105.52 8.65 105.45 8.55 105.36 8.49 103 7.33 102.98 7.34 102.82 7.31 102.66 7.34 102.54 7.41 101.03 8.92"/><polygon points="72.14 15.3 70.83 15.3 70.83 16.63 70.8 16.66 70.8 16.66 70.76 16.82 70.67 17 70.65 17.01 70.65 17.03 69.82 17.84 69.75 17.99 69.72 18.11 69.75 18.25 69.82 18.37 72.4 20.95 72.55 21.03 72.67 21.05 76.21 21.05 76.35 21.02 76.47 20.96 76.53 20.83 76.56 20.69 76.58 20.68 76.58 17.18 76.56 17.16 76.52 17 76.46 16.88 73.9 14.31 73.75 14.24 73.63 14.21 73.5 14.25 73.37 14.31 72.53 15.15 72.51 15.16 72.51 15.17 72.34 15.25 72.16 15.3 72.14 15.3"/><polygon points="90.09 4.22 90.01 4.37 89.98 4.51 89.96 4.52 89.96 5.09 92.61 5.09 92.63 5.11 92.63 5.11 92.79 5.15 92.97 5.24 93.02 5.29 93.1 5.45 93.15 5.63 93.14 5.64 93.15 5.65 93.15 9.29 95.63 6.81 95.64 6.81 95.65 6.79 95.81 6.71 96.04 6.67 96.2 6.71 96.39 6.79 96.39 6.81 96.41 6.81 98.32 8.72 98.47 8.79 98.58 8.82 98.72 8.79 98.85 8.72 98.96 8.6 99.04 8.45 99.07 8.31 99.09 8.3 99.09 5.08 99.07 5.07 99.03 4.91 98.97 4.78 96.44 2.26 96.3 2.19 96.17 2.16 92.3 2.16 92.15 2.2 92.02 2.26 90.09 4.22"/><polygon points="70.55 4.78 70.47 4.93 70.44 5.06 70.44 8.33 70.48 8.47 70.54 8.6 70.68 8.72 70.83 8.79 70.95 8.82 71.08 8.79 71.21 8.72 73.12 6.81 73.14 6.81 73.14 6.79 73.31 6.71 73.54 6.67 73.7 6.71 73.88 6.79 73.89 6.81 73.91 6.81 76.36 9.29 76.36 5.65 76.38 5.63 76.38 5.63 76.42 5.47 76.51 5.29 76.56 5.24 76.72 5.16 76.9 5.11 76.9 5.11 76.92 5.09 79.57 5.09 79.57 4.52 79.55 4.51 79.51 4.34 79.44 4.22 77.49 2.26 77.34 2.19 77.22 2.16 73.34 2.16 73.19 2.2 73.07 2.26 70.55 4.78"/><polygon points="93.35 24.73 94.95 23.13 90.99 23.13 90.89 23.03 90.89 19.05 89.28 20.65 89.28 24.73 93.35 24.73"/><polygon points="106.66 47.46 106.69 47.3 106.66 47.14 106.6 47.01 105.08 45.5 104.94 45.43 104.81 45.4 101.28 45.4 101.13 45.43 101.02 45.49 100.95 45.63 100.92 45.77 100.9 45.78 100.9 49.28 100.92 49.29 100.96 49.45 101.03 49.58 102.54 51.09 102.69 51.16 102.82 51.19 102.97 51.16 105.35 50.02 105.35 50 105.45 49.93 105.52 49.83 106.67 47.47 106.66 47.46"/><polygon points="94.95 35.37 93.35 33.77 89.28 33.77 89.28 37.83 90.89 39.43 90.89 35.47 90.99 35.37 94.95 35.37"/><polygon points="87.52 3.65 87.59 3.51 87.63 3.37 87.64 3.36 87.64 1.25 87.63 1.23 87.59 1.07 87.51 0.96 87.37 0.87 87.37 0.87 84.91 0 84.9 0.02 84.88 0.02 84.75 0 84.63 0.02 84.61 0.01 82.17 0.87 82.16 0.87 82.02 0.96 81.94 1.07 81.91 1.23 81.89 1.25 81.89 3.36 81.91 3.37 81.94 3.53 82.01 3.65 84.49 6.16 84.64 6.23 84.75 6.26 84.89 6.22 85.02 6.16 87.52 3.65"/><polygon points="98.96 53.72 99.04 53.57 99.07 53.43 99.09 53.42 99.09 50.2 99.07 50.19 99.03 50.02 98.96 49.9 98.84 49.76 98.7 49.69 98.58 49.66 98.44 49.69 98.32 49.76 96.41 51.67 96.39 51.68 96.39 51.69 96.22 51.77 96.04 51.81 96 51.81 95.83 51.77 95.65 51.69 95.65 51.67 95.63 51.67 93.15 49.21 93.15 52.85 93.14 52.86 93.15 52.87 93.11 53.03 93.02 53.22 92.97 53.26 92.81 53.34 92.63 53.39 92.61 53.39 89.96 53.39 89.96 53.98 89.98 53.99 90.02 54.16 90.08 54.28 92.02 56.22 92.17 56.29 92.31 56.32 92.32 56.34 96.15 56.34 96.16 56.32 96.32 56.28 96.44 56.22 98.96 53.72"/><polygon points="114.03 29.25 114.01 29.12 114.01 29.12 113.13 26.63 113.04 26.49 112.93 26.42 112.77 26.38 112.76 26.36 110.65 26.36 110.64 26.38 110.48 26.42 110.35 26.48 107.87 28.98 107.8 29.13 107.77 29.25 107.8 29.39 107.87 29.51 110.35 32.01 110.5 32.09 110.62 32.12 112.78 32.12 112.93 32.08 113.04 32.01 113.13 31.87 114.01 29.37 114.03 29.25"/><polygon points="87.52 14.92 87.59 14.77 87.63 14.63 87.64 14.62 87.64 11.02 87.63 11.01 87.58 10.84 87.53 10.73 87.39 10.67 87.27 10.64 86.09 10.64 86.06 10.61 86.06 10.61 85.9 10.57 85.72 10.49 85.72 10.48 85.69 10.47 84.75 9.53 83.82 10.47 83.79 10.48 83.79 10.49 83.63 10.57 83.45 10.61 83.45 10.61 83.42 10.64 82.26 10.64 82.11 10.67 82 10.73 81.94 10.87 81.91 11.01 81.89 11.02 81.89 14.62 81.91 14.63 81.94 14.79 82.01 14.92 84.49 17.42 84.64 17.49 84.75 17.52 84.89 17.48 85.02 17.42 87.52 14.92"/><polygon points="111.74 40.94 111.82 40.79 111.85 40.65 111.87 40.64 111.87 36.82 111.85 36.8 111.81 36.64 111.74 36.52 109.79 34.56 109.64 34.49 109.5 34.45 109.49 34.44 108.92 34.44 108.92 37.08 108.89 37.11 108.89 37.11 108.85 37.27 108.77 37.45 108.72 37.49 108.56 37.58 108.38 37.62 108.38 37.62 108.35 37.65 104.74 37.65 107.19 40.1 107.19 40.12 107.21 40.13 107.29 40.29 107.34 40.52 107.3 40.68 107.21 40.86 107.19 40.87 107.19 40.89 105.28 42.79 105.21 42.94 105.19 43.06 105.22 43.19 105.29 43.32 105.41 43.46 105.55 43.53 105.68 43.56 108.95 43.56 109.09 43.52 109.22 43.46 111.74 40.94"/><polygon points="97.35 43.2 97.37 43.18 98.7 43.18 98.7 41.87 98.73 41.84 98.73 41.84 98.77 41.68 98.86 41.5 98.87 41.49 98.87 41.47 99.69 40.64 99.77 40.49 99.79 40.37 99.76 40.23 99.69 40.11 97.13 37.55 96.98 37.47 96.84 37.44 96.83 37.42 93.33 37.42 93.32 37.44 93.16 37.48 93.05 37.54 92.98 37.67 92.95 37.8 92.95 41.33 92.99 41.48 93.05 41.6 95.63 44.19 95.78 44.26 95.9 44.29 96.03 44.25 96.16 44.19 96.98 43.35 97 43.35 97 43.33 97.17 43.25 97.35 43.2 97.35 43.2"/><polygon points="84.83 20.52 84.68 20.52 81.89 17.72 81.89 19.98 84.76 22.85 87.64 19.98 87.64 17.72 84.83 20.52 84.83 20.52"/><polygon points="81.89 38.52 81.89 40.78 84.68 37.98 84.83 37.98 84.83 37.98 87.64 40.78 87.64 38.52 84.76 35.65 81.89 38.52"/><polygon points="59.6 65.13 59.55 65.04 59.46 64.99 59.34 64.96 52.86 64.96 52.74 64.99 52.65 65.04 52.59 65.13 52.56 65.25 52.56 89.8 52.59 89.92 52.65 90.01 52.74 90.06 52.87 90.09 52.88 90.11 59.32 90.11 59.33 90.09 59.46 90.06 59.55 90.01 59.6 89.92 59.64 89.78 59.65 89.78 59.65 65.27 59.64 65.26 59.6 65.13"/><polygon points="51.45 72.02 51.4 71.92 51.35 71.88 51.32 71.87 50.74 71.57 50.13 71.33 49.51 71.12 48.87 70.94 48.24 70.84 47.59 70.75 46.92 70.72 46.27 70.73 45.61 70.79 44.96 70.88 44.33 71.03 43.7 71.21 43.09 71.44 42.49 71.7 41.91 72.02 41.35 72.37 40.83 72.75 40.32 73.17 39.84 73.61 39.39 74.1 39.31 74.13 39.25 74.17 39.08 74.23 38.92 74.23 38.77 74.16 38.68 74.07 38.59 73.91 38.57 73.79 38.57 73.78 38.57 73.78 38.57 70.83 37.94 70.75 37.25 70.72 36.55 70.73 35.87 70.79 35.17 70.91 34.5 71.07 33.84 71.26 33.19 71.53 32.56 71.82 31.96 72.17 31.39 72.56 31.34 72.57 31.26 72.53 31.27 72.49 31.25 72.47 31.25 70.99 31.22 70.88 31.17 70.78 31.07 70.73 30.96 70.7 24.47 70.7 24.35 70.73 24.26 70.78 24.21 70.88 24.18 71.01 24.16 71.02 24.16 89.78 24.18 89.78 24.21 89.92 24.26 90.01 24.35 90.06 24.48 90.09 24.49 90.11 30.94 90.11 30.95 90.09 31.07 90.06 31.17 90.01 31.22 89.92 31.25 89.8 31.25 77.56 31.27 77.54 31.27 77.5 31.55 77.15 31.89 76.79 32.23 76.49 32.63 76.21 33.04 75.96 33.47 75.76 33.93 75.62 34.37 75.5 34.86 75.42 35.33 75.4 35.79 75.42 36.28 75.49 36.73 75.6 37.18 75.76 37.61 75.94 37.62 75.96 37.65 75.95 37.77 76.07 37.86 76.22 37.88 76.36 37.87 76.4 37.85 76.46 37.87 76.55 37.62 77.15 37.43 77.76 37.27 78.39 37.17 79.04 37.1 79.67 37.06 80.32 37.08 80.97 37.13 81.62 37.24 82.25 37.38 82.88 37.57 83.51 37.8 84.1 38.06 84.7 38.38 85.28 38.71 85.82 39.1 86.34 39.52 86.83 39.95 87.31 40.43 87.75 40.94 88.15 41.46 88.52 42.02 88.87 42.6 89.16 43.19 89.41 43.79 89.64 44.42 89.81 45.05 89.93 45.7 90.04 46.35 90.09 46.98 90.09 47.63 90.06 48.27 89.97 48.91 89.84 49.54 89.69 50.15 89.48 50.74 89.23 51.32 88.93 51.35 88.92 51.4 88.88 51.45 88.79 51.47 88.68 51.49 88.67 51.49 84.97 51.47 84.96 51.45 84.85 51.4 84.76 51.31 84.7 51.22 84.66 51.13 84.66 51.02 84.71 50.98 84.72 50.63 84.92 50.17 85.1 49.73 85.24 49.26 85.35 48.77 85.39 48.29 85.41 47.82 85.37 47.35 85.28 46.88 85.16 46.43 84.97 46 84.76 45.61 84.51 45.23 84.2 44.87 83.88 44.55 83.52 44.27 83.12 44.02 82.71 43.82 82.28 43.66 81.83 43.55 81.36 43.48 80.89 43.46 80.41 43.48 79.92 43.55 79.45 43.66 78.99 43.82 78.54 44.02 78.11 44.27 77.69 44.54 77.3 44.86 76.94 45.22 76.61 45.6 76.31 45.99 76.05 46.43 75.84 46.88 75.66 47.34 75.53 47.81 75.44 48.28 75.4 48.77 75.42 49.25 75.46 49.72 75.56 50.17 75.71 50.62 75.89 50.98 76.09 51.02 76.1 51.13 76.15 51.22 76.15 51.33 76.1 51.4 76.05 51.45 75.96 51.47 75.85 51.49 75.84 51.49 72.14 51.47 72.13 51.45 72.02"/><polygon points="75.13 79.73 75.06 79.07 74.94 78.42 74.78 77.77 74.59 77.14 74.34 76.51 74.05 75.92 73.71 75.34 73.35 74.78 72.94 74.25 72.5 73.75 72.03 73.29 71.52 72.85 71 72.45 70.44 72.08 69.86 71.77 69.25 71.49 68.63 71.24 67.98 71.05 67.34 70.91 66.69 70.79 66.02 70.73 65.36 70.72 64.69 70.75 64.03 70.82 63.38 70.95 62.73 71.1 62.1 71.31 61.49 71.58 60.89 71.88 60.85 71.88 60.8 71.92 60.74 72.02 60.73 72.12 60.73 75.86 60.74 75.96 60.79 76.05 60.88 76.11 60.98 76.15 61.06 76.15 61.17 76.1 61.23 76.09 61.59 75.89 62.04 75.71 62.49 75.57 62.95 75.46 63.44 75.42 63.92 75.4 64.39 75.44 64.86 75.53 65.33 75.65 65.78 75.83 66.21 76.05 66.61 76.3 66.99 76.61 67.34 76.93 67.67 77.29 67.94 77.69 68.19 78.1 68.39 78.53 68.55 78.98 68.66 79.45 68.73 79.91 68.75 80.4 68.75 80.4 68.75 80.4 68.75 89.78 68.77 89.78 68.8 89.92 68.85 90.01 68.94 90.06 69.08 90.09 69.08 90.11 74.86 90.11 74.86 90.09 74.99 90.06 75.09 90.01 75.14 89.92 75.17 89.8 75.17 80.42 75.15 80.41 75.13 79.73"/><polygon points="22.82 70.78 22.73 70.73 22.61 70.7 16.13 70.7 16.01 70.73 15.92 70.78 15.87 70.88 15.84 70.99 15.84 72.72 15.8 72.75 15.8 72.78 15.76 72.79 15.75 72.8 15.74 72.8 15.68 72.8 15.15 72.42 14.61 72.06 14.04 71.75 13.45 71.49 12.85 71.24 12.24 71.05 11.61 70.91 10.96 70.81 10.31 70.73 9.67 70.72 9.04 70.73 8.39 70.81 7.74 70.91 7.11 71.07 6.5 71.26 5.9 71.49 5.3 71.77 4.74 72.07 4.2 72.42 3.68 72.8 3.19 73.22 2.71 73.68 2.29 74.15 1.89 74.66 1.52 75.2 1.19 75.75 0.89 76.33 0.65 76.92 0.44 77.53 0.26 78.17 0.14 78.8 0.05 79.44 0 80.09 0 80.72 0.05 81.37 0.14 82.02 0.26 82.65 0.44 83.28 0.65 83.89 0.9 84.49 1.19 85.07 1.52 85.61 1.89 86.15 2.3 86.66 2.72 87.13 3.19 87.59 3.68 88.01 4.21 88.39 4.75 88.74 5.31 89.04 5.91 89.32 6.5 89.55 7.12 89.74 7.75 89.9 8.39 90 9.04 90.07 9.67 90.09 10.32 90.07 10.97 90 11.62 89.9 12.25 89.76 12.86 89.56 13.45 89.32 14.05 89.06 14.61 88.74 15.15 88.39 15.68 88 15.74 88.01 15.75 88 15.76 88.02 15.8 88.02 15.8 88.05 15.84 88.09 15.84 89.8 15.87 89.92 15.92 90.01 16.01 90.06 16.14 90.09 16.15 90.11 22.59 90.11 22.6 90.09 22.73 90.06 22.82 90.01 22.88 89.92 22.91 89.8 22.91 70.99 22.88 70.88 22.82 70.78"/><polygon points="169.48 79.37 169.39 78.72 169.25 78.07 169.07 77.46 168.85 76.85 168.58 76.23 168.29 75.65 167.95 75.09 167.57 74.57 167.16 74.06 166.73 73.59 166.25 73.13 165.75 72.71 165.22 72.35 164.66 71.99 164.08 71.7 163.49 71.44 162.87 71.21 162.24 71.02 161.61 70.88 160.96 70.79 160.31 70.73 159.67 70.72 159.02 70.75 158.37 70.82 157.72 70.95 157.09 71.12 156.48 71.33 155.87 71.58 155.29 71.86 154.71 72.19 154.18 72.54 153.66 72.94 153.17 73.38 152.71 73.86 152.29 74.35 151.89 74.87 151.54 75.42 151.22 75.98 150.94 76.57 150.91 76.58 150.85 76.68 150.82 76.72 150.68 76.8 150.53 76.83 150.49 76.83 150.33 76.79 150.2 76.72 150.17 76.68 150.14 76.62 150.06 76.57 149.78 75.97 149.46 75.39 149.1 74.85 148.71 74.32 148.27 73.83 147.82 73.36 147.33 72.92 146.8 72.52 146.26 72.17 145.68 71.84 145.09 71.56 144.49 71.31 143.86 71.1 143.23 70.94 142.58 70.82 141.93 70.75 141.26 70.72 140.62 70.73 139.95 70.79 139.3 70.89 138.68 71.05 138.04 71.23 137.43 71.47 136.83 71.74 136.26 72.05 135.69 72.4 135.17 72.8 135.13 72.8 135.12 72.8 135.11 72.8 135.05 72.79 135.06 72.74 135.03 72.72 135.03 70.99 135 70.88 134.95 70.78 134.86 70.73 134.74 70.7 131.14 70.7 127.86 70.7 122.88 70.7 122.78 70.72 122.68 70.77 122.61 70.86 117.93 79.81 117.92 79.81 117.92 79.82 117.81 79.95 117.65 80.03 117.53 80.05 117.5 80.05 117.35 80.02 117.2 79.93 117.11 79.82 117.11 79.8 112.44 70.86 112.37 70.77 112.27 70.72 112.17 70.7 104.28 70.7 104.26 70.7 104.09 70.65 103.97 70.58 103.94 70.55 103.86 70.41 103.82 70.26 103.83 70.25 103.82 70.24 103.82 65.25 103.79 65.13 103.74 65.04 103.64 64.99 103.53 64.96 97.04 64.96 96.92 64.99 96.83 65.04 96.78 65.13 96.75 65.26 96.73 65.27 96.73 70.24 96.72 70.25 96.73 70.26 96.68 70.43 96.61 70.55 96.58 70.58 96.43 70.66 96.29 70.7 96.27 70.7 94.14 70.7 94.02 70.73 93.93 70.78 93.88 70.88 93.85 71.01 93.83 71.02 93.83 74.48 93.81 74.51 93.8 74.57 93.75 74.56 93.74 74.57 93.73 74.56 93.68 74.56 93.25 74.04 92.81 73.57 92.34 73.11 91.83 72.71 91.31 72.33 90.76 72 90.19 71.7 89.59 71.44 88.98 71.21 88.36 71.01 87.72 70.88 87.09 70.79 86.44 70.73 85.79 70.72 85.14 70.75 84.49 70.82 83.86 70.95 83.23 71.1 82.6 71.31 82.01 71.56 81.43 71.84 80.87 72.16 80.33 72.52 79.8 72.91 79.31 73.35 78.85 73.8 78.43 74.29 78.05 74.82 77.68 75.36 77.36 75.92 77.08 76.5 76.84 77.11 76.65 77.73 76.49 78.36 76.37 78.99 76.3 79.64 76.26 80.29 76.28 80.93 76.33 81.58 76.44 82.23 76.58 82.86 76.77 83.47 76.98 84.09 77.26 84.68 77.56 85.26 77.91 85.8 78.28 86.33 78.7 86.83 79.16 87.31 79.63 87.75 80.14 88.15 80.66 88.52 81.22 88.85 81.8 89.15 82.4 89.41 83.01 89.64 83.62 89.81 84.25 89.95 84.9 90.04 85.55 90.09 86.2 90.09 86.85 90.06 87.49 89.97 88.13 89.84 88.75 89.67 89.37 89.46 89.96 89.21 90.56 88.93 91.12 88.6 91.64 88.23 92.17 87.83 92.64 87.41 93.1 86.94 93.52 86.44 93.9 85.92 94.25 85.38 94.57 84.81 94.85 84.22 95.09 83.62 95.29 82.99 95.29 82.99 95.3 82.9 95.27 82.81 95.2 82.71 95.13 82.66 95 82.65 94.99 82.63 90.64 82.63 90.63 82.65 90.52 82.66 90.43 82.71 90.37 82.8 90.31 82.84 90.11 83.19 89.82 83.57 89.52 83.93 89.15 84.24 88.78 84.52 88.38 84.77 87.95 84.99 87.52 85.15 87.07 85.28 86.6 85.37 86.13 85.41 85.65 85.41 85.18 85.35 84.73 85.24 84.28 85.12 83.83 84.94 83.42 84.72 83.02 84.45 82.66 84.17 82.32 83.84 82.01 83.48 81.72 83.09 81.49 82.67 81.31 82.26 81.15 81.81 81.04 81.34 80.97 80.88 80.95 80.41 80.95 80.41 80.95 80.4 80.99 80.36 81.03 80.32 81.03 80.32 81.04 80.32 95.34 80.32 95.46 80.29 95.56 80.23 95.62 80.13 95.64 80.01 95.58 79.37 95.5 78.72 95.36 78.09 95.18 77.46 94.95 76.85 94.96 76.77 94.95 76.69 94.95 76.65 94.99 76.49 95.06 76.37 95.1 76.33 95.24 76.25 95.38 76.22 95.38 76.22 95.41 76.2 96.27 76.2 96.29 76.22 96.29 76.22 96.46 76.26 96.58 76.33 96.61 76.37 96.69 76.51 96.73 76.65 96.72 76.67 96.73 76.67 96.73 89.78 96.75 89.78 96.78 89.92 96.83 90.01 96.92 90.06 97.05 90.09 97.06 90.11 103.5 90.11 103.51 90.09 103.64 90.06 103.74 90.01 103.79 89.92 103.82 89.8 103.82 76.67 103.83 76.67 103.82 76.65 103.87 76.49 103.94 76.37 103.97 76.33 104.11 76.25 104.26 76.22 104.26 76.22 104.28 76.2 106.96 76.2 106.98 76.22 107.13 76.25 107.28 76.34 107.37 76.44 107.36 76.47 113.42 88.02 113.42 88.03 113.43 88.04 113.47 88.25 113.43 88.43 113.42 88.44 111.85 91.43 111.83 91.56 111.84 91.67 111.91 91.76 112 91.83 112.12 91.86 119.44 91.86 119.54 91.84 119.63 91.79 119.7 91.7 119.7 91.69 127.78 76.25 127.82 76.23 127.86 76.2 127.87 76.22 127.89 76.21 127.91 76.25 127.94 76.29 127.94 93.28 127.96 93.28 127.99 93.42 128.04 93.51 128.13 93.56 128.25 93.59 134.74 93.59 134.86 93.56 134.95 93.51 135 93.42 135.03 93.3 135.03 88.09 135.06 88.07 135.05 88.02 135.11 88.01 135.12 88 135.13 88.01 135.17 88.01 135.7 88.41 136.26 88.76 136.84 89.08 137.43 89.34 138.05 89.58 138.68 89.76 139.31 89.92 139.96 90.02 140.62 90.07 141.27 90.09 141.94 90.06 142.59 89.98 143.23 89.86 143.86 89.7 144.49 89.49 145.09 89.25 145.69 88.97 146.26 88.64 146.81 88.28 147.33 87.88 147.82 87.44 148.28 86.97 148.72 86.48 149.1 85.95 149.47 85.41 149.78 84.83 150.06 84.24 150.13 84.19 150.17 84.11 150.2 84.08 150.35 84 150.53 83.96 150.7 84 150.82 84.08 150.85 84.11 150.92 84.23 150.94 84.24 151.23 84.84 151.56 85.42 151.91 85.98 152.31 86.5 152.75 87.01 153.22 87.46 153.72 87.9 154.24 88.31 154.8 88.67 155.38 89.01 155.98 89.29 156.59 89.53 157.22 89.72 157.87 89.88 158.52 90 159.18 90.07 159.85 90.09 160.5 90.07 161.16 90 161.81 89.88 162.46 89.74 163.09 89.53 163.7 89.28 164.3 89 164.87 88.67 165.44 88.32 165.96 87.92 166.47 87.48 166.92 87.01 167.36 86.51 167.76 85.97 168.13 85.43 168.44 84.85 168.75 84.25 168.97 83.63 169.18 82.99 169.18 82.99 169.19 82.9 169.17 82.81 169.1 82.71 169.02 82.66 168.9 82.65 168.89 82.63 164.52 82.63 164.5 82.65 164.4 82.66 164.31 82.71 164.25 82.8 164.21 82.83 164 83.19 163.71 83.57 163.39 83.93 163.05 84.25 162.67 84.54 162.26 84.78 161.85 84.99 161.39 85.15 160.95 85.28 160.48 85.37 159.99 85.41 159.52 85.39 159.06 85.33 158.59 85.24 158.14 85.1 157.71 84.92 157.28 84.71 156.88 84.44 156.52 84.13 156.18 83.81 155.87 83.45 155.6 83.05 155.37 82.64 155.19 82.2 155.03 81.76 154.92 81.29 154.87 80.87 154.84 80.8 154.86 80.64 154.88 80.6 154.99 80.46 155.14 80.36 155.28 80.32 155.29 80.33 155.3 80.32 169.24 80.32 169.36 80.29 169.45 80.23 169.52 80.13 169.53 80.01 169.48 79.37"/></g></g></svg>